<svg width="58" height="58" viewBox="0 0 58 58" fill="none" xmlns="http://www.w3.org/2000/svg">
<rect x="1.56383" y="1.36937" width="54.8745" height="54.8745" rx="27.4373" stroke="#463CE4" stroke-width="1.68845"/>
<path fill-rule="evenodd" clip-rule="evenodd" d="M22.5802 21.572C13.1962 32.2581 14.5544 38.1679 16.4065 39.787C25.2967 45.6157 32.4582 44.6443 34.9276 43.4299C43.8178 41.487 43.9824 35.7392 42.9535 33.1081C42.9535 28.2508 38.4261 23.3935 36.1624 21.572L39.2492 16.7147C29.3713 11.8574 21.9629 14.6908 19.4934 16.7147L22.5802 21.572ZM32.0095 28.0957C32.6044 28.5163 33.0543 29.1111 33.2972 29.798C33.3357 29.9071 33.3524 30.0226 33.3462 30.1381C33.3401 30.2536 33.3112 30.3668 33.2613 30.4711C33.2115 30.5755 33.1415 30.669 33.0555 30.7463C32.9695 30.8236 32.8691 30.8833 32.76 30.9218C32.6509 30.9603 32.5353 30.9769 32.4198 30.9708C32.3043 30.9646 32.1912 30.9358 32.0868 30.8859C31.8761 30.7851 31.714 30.6048 31.6362 30.3845C31.5147 30.0411 31.2898 29.7438 30.9923 29.5336C30.6948 29.3233 30.3395 29.2105 29.9752 29.2106V32.7334C30.9095 32.7334 31.8056 33.1045 32.4662 33.7652C33.1269 34.4258 33.498 35.3219 33.498 36.2562C33.498 37.1905 33.1269 38.0865 32.4662 38.7472C31.8056 39.4078 30.9095 39.779 29.9752 39.779V40.6597H28.2138V39.779C27.4852 39.779 26.7745 39.5531 26.1796 39.1324C25.5846 38.7118 25.1347 38.1171 24.8918 37.4301C24.8494 37.3203 24.8295 37.203 24.8333 37.0853C24.837 36.9676 24.8643 36.8519 24.9136 36.7449C24.9629 36.6379 25.0331 36.542 25.1201 36.4626C25.2071 36.3832 25.3091 36.3222 25.4202 36.2829C25.5312 36.2437 25.649 36.2271 25.7665 36.2342C25.8841 36.2413 25.999 36.2719 26.1045 36.3241C26.21 36.3764 26.304 36.4493 26.3808 36.5385C26.4577 36.6278 26.5159 36.7315 26.5519 36.8436C26.795 37.5288 27.4476 38.0176 28.2138 38.0176V34.4948C27.2795 34.4948 26.3835 34.1236 25.7228 33.463C25.0622 32.8023 24.691 31.9063 24.691 30.972C24.691 30.0377 25.0622 29.1416 25.7228 28.481C26.3835 27.8203 27.2795 27.4492 28.2138 27.4492V26.5685H29.9752V27.4492C30.7038 27.4492 31.4145 27.6751 32.0095 28.0957ZM26.9683 29.7265C27.2986 29.3961 27.7467 29.2106 28.2138 29.2106V32.7334C27.7467 32.7334 27.2986 32.5478 26.9683 32.2175C26.638 31.8871 26.4524 31.4391 26.4524 30.972C26.4524 30.5048 26.638 30.0568 26.9683 29.7265ZM31.2207 37.5017C30.8904 37.832 30.4424 38.0176 29.9752 38.0176V34.4948C30.4424 34.4948 30.8904 34.6803 31.2207 35.0107C31.551 35.341 31.7366 35.789 31.7366 36.2562C31.7366 36.7233 31.551 37.1713 31.2207 37.5017Z" fill="url(#paint0_linear_31_366)"/>
<defs>
<linearGradient id="paint0_linear_31_366" x1="15.0714" y1="21.4021" x2="28.889" y2="38.9044" gradientUnits="userSpaceOnUse">
<stop stop-color="#473BE4"/>
<stop offset="1" stop-color="#8536ED"/>
</linearGradient>
</defs>
</svg>
