<svg width="58" height="58" viewBox="0 0 58 58" fill="none" xmlns="http://www.w3.org/2000/svg">
<rect x="1.51199" y="1.67349" width="54.9782" height="54.9782" rx="27.4891" stroke="#463CE4" stroke-width="1.58477"/>
<g clip-path="url(#clip0_31_379)">
<path d="M21.5234 14.7516C19.4474 14.7516 17.7595 16.4394 17.7595 18.5154V41.0984C17.7595 43.1744 19.4474 44.8622 21.5234 44.8622H36.5787C38.6547 44.8622 40.3425 43.1744 40.3425 41.0984V24.1612H32.8148C31.7739 24.1612 30.9329 23.3202 30.9329 22.2792V14.7516H21.5234ZM32.8148 14.7516V22.2792H40.3425L32.8148 14.7516ZM22.4643 18.5154H26.2281C26.7457 18.5154 27.1691 18.9388 27.1691 19.4564C27.1691 19.9739 26.7457 20.3973 26.2281 20.3973H22.4643C21.9468 20.3973 21.5234 19.9739 21.5234 19.4564C21.5234 18.9388 21.9468 18.5154 22.4643 18.5154ZM22.4643 22.2792H26.2281C26.7457 22.2792 27.1691 22.7027 27.1691 23.2202C27.1691 23.7377 26.7457 24.1612 26.2281 24.1612H22.4643C21.9468 24.1612 21.5234 23.7377 21.5234 23.2202C21.5234 22.7027 21.9468 22.2792 22.4643 22.2792ZM25.6518 37.2052C25.2931 38.399 24.1933 39.2165 22.9465 39.2165H22.4643C21.9468 39.2165 21.5234 38.7931 21.5234 38.2755C21.5234 37.758 21.9468 37.3346 22.4643 37.3346H22.9465C23.3641 37.3346 23.7287 37.064 23.8463 36.6641L24.7226 33.753C24.9226 33.0885 25.5342 32.6298 26.2281 32.6298C26.9221 32.6298 27.5337 33.0826 27.7337 33.753L28.4159 36.0231C28.8511 35.6585 29.4039 35.4527 29.992 35.4527C30.927 35.4527 31.7798 35.9819 32.1973 36.817L32.4561 37.3346H35.6377C36.1552 37.3346 36.5787 37.758 36.5787 38.2755C36.5787 38.7931 36.1552 39.2165 35.6377 39.2165H31.8739C31.5151 39.2165 31.1917 39.0165 31.0329 38.699L30.5154 37.658C30.4154 37.4581 30.2154 37.3346 29.9979 37.3346C29.7803 37.3346 29.5744 37.4581 29.4803 37.658L28.9628 38.699C28.7922 39.0459 28.4217 39.2518 28.0395 39.2165C27.6572 39.1812 27.3279 38.9166 27.222 38.5519L26.2281 35.2762L25.6518 37.2052Z" fill="url(#paint0_linear_31_379)"/>
</g>
<defs>
<linearGradient id="paint0_linear_31_379" x1="17.7595" y1="19.9021" x2="37.5692" y2="44.8622" gradientUnits="userSpaceOnUse">
<stop stop-color="#413CE3"/>
<stop offset="1" stop-color="#8735EE"/>
</linearGradient>
<clipPath id="clip0_31_379">
<rect width="22.583" height="30.1106" fill="white" transform="translate(17.7595 14.7516)"/>
</clipPath>
</defs>
</svg>
