<svg width="68" height="68" viewBox="0 0 68 68" fill="none" xmlns="http://www.w3.org/2000/svg">
<path d="M33.5571 67.6279C52.0587 67.6279 67.0571 52.6295 67.0571 34.1279C67.0571 15.6264 52.0587 0.62793 33.5571 0.62793C15.0556 0.62793 0.0571289 15.6264 0.0571289 34.1279C0.0571289 52.6295 15.0556 67.6279 33.5571 67.6279Z" fill="#20187B" fill-opacity="0.1"/>
<path d="M33.8163 38.9527H33.9131C35.9878 39.008 37.6475 40.6954 37.6475 42.7701C37.6475 44.5405 36.4442 46.0204 34.8121 46.463V48.0121C34.8121 48.5653 34.3695 49.0079 33.8163 49.0079C33.263 49.0079 32.8204 48.5653 32.8204 48.0121V46.463C32.0077 46.2445 31.2896 45.7644 30.7772 45.0969C30.2647 44.4294 29.9863 43.6117 29.9851 42.7701C29.9851 42.2169 30.4276 41.7743 30.9809 41.7743C31.5341 41.7743 31.9767 42.2169 31.9767 42.7701C31.9767 43.7936 32.7928 44.6096 33.8024 44.6096C34.8121 44.6096 35.642 43.7798 35.642 42.7701C35.642 41.7604 34.8121 40.9306 33.8024 40.9306H33.7056C32.7106 40.9036 31.7654 40.4898 31.0707 39.7769C30.3759 39.0641 29.9864 38.1086 29.9851 37.1132C29.9851 35.3428 31.1884 33.8629 32.8204 33.4203V31.8712C32.8204 31.3179 33.263 30.8754 33.8163 30.8754C34.3695 30.8754 34.8121 31.3179 34.8121 31.8712V33.4203C36.4442 33.8629 37.6475 35.3428 37.6475 37.1132C37.6475 37.6664 37.2049 38.109 36.6516 38.109C36.0984 38.109 35.6558 37.6664 35.6558 37.1132C35.6558 36.1035 34.8259 35.2736 33.8163 35.2736C32.8066 35.2736 31.9767 36.1035 31.9767 37.1132C31.9767 38.1229 32.8066 38.9527 33.8163 38.9527Z" fill="url(#paint0_linear_28_76)"/>
<path d="M26.4747 19.2503L30.3281 23.7592L29.9117 24.224C21.981 26.0027 16.0571 33.0856 16.0571 41.553C16.0571 48.9969 22.0986 55.0383 29.5425 55.0383H38.0763C45.5202 55.0383 51.5616 48.9983 51.5616 41.5543C51.5754 33.0856 45.6516 26.0027 37.7208 24.224C37.753 23.9317 37.7002 23.6363 37.5686 23.3734L40.8466 19.621L41.0582 19.2946C41.3054 18.7556 41.3686 18.1504 41.2382 17.572C41.1078 16.9936 40.7909 16.4741 40.3364 16.0933C39.882 15.7125 39.315 15.4916 38.7227 15.4645C38.1305 15.4374 37.5457 15.6056 37.0583 15.9433L35.8923 14.5602C35.6308 14.2675 35.3104 14.0332 34.9524 13.8726C34.5941 13.7119 34.2062 13.6286 33.8136 13.6279C33.4211 13.6273 33.0329 13.7093 32.6742 13.8688C32.3155 14.0282 31.9944 14.2614 31.7319 14.5533L30.5106 15.917C30.0245 15.5723 29.4384 15.3974 28.8429 15.4193C28.2475 15.4412 27.6757 15.6587 27.2162 16.0382C26.7567 16.4177 26.4352 16.9379 26.3011 17.5186C26.1671 18.0992 26.2281 18.7078 26.4747 19.2503ZM31.7292 21.1659L29.3834 18.455C29.9283 18.7176 30.5449 18.7922 31.1369 18.667C31.7287 18.5419 32.2623 18.2242 32.6545 17.7635L33.7609 16.3278L34.9891 17.7828C35.3721 18.2282 35.8887 18.5378 36.4619 18.6657C37.0352 18.7936 37.6343 18.7328 38.1703 18.4924L35.8356 21.1659H31.7292ZM18.8234 41.553C18.8234 33.2709 25.5342 26.56 33.8163 26.56C42.0983 26.56 48.8092 33.2709 48.7954 41.5502V41.553C48.7943 44.3955 47.6645 47.1214 45.6546 49.1313C43.6447 51.1412 40.9188 52.271 38.0763 52.2721H29.5425C26.6999 52.271 23.9741 51.1412 21.9641 49.1313C19.9541 47.1214 18.8245 44.3955 18.8234 41.553Z" fill="url(#paint1_linear_28_76)"/>
<defs>
<linearGradient id="paint0_linear_28_76" x1="19.5149" y1="20.5435" x2="42.3362" y2="59.2706" gradientUnits="userSpaceOnUse">
<stop stop-color="#423CE3"/>
<stop offset="1" stop-color="#8436ED"/>
</linearGradient>
<linearGradient id="paint1_linear_28_76" x1="19.5149" y1="20.5435" x2="42.3362" y2="59.2706" gradientUnits="userSpaceOnUse">
<stop stop-color="#423CE3"/>
<stop offset="1" stop-color="#8436ED"/>
</linearGradient>
</defs>
</svg>
