<svg width="172" height="172" viewBox="0 0 172 172" fill="none" xmlns="http://www.w3.org/2000/svg">
<path d="M160.242 129.406C149.561 147.675 132.519 161.365 112.377 167.855C92.2344 174.346 70.4061 173.182 51.0682 164.586C31.7303 155.99 16.2407 140.566 7.56293 121.265C-1.11484 101.964 -2.37143 80.1407 4.03359 59.971C10.4386 39.8013 24.0555 22.7013 42.2789 11.9428C60.5024 1.18424 82.0528 -2.47746 102.807 1.65829C123.561 5.79404 142.062 17.4368 154.769 34.3591C167.477 51.2813 173.499 72.2948 171.683 93.379L150.804 91.5809C152.178 75.6343 147.623 59.7412 138.012 46.9424C128.401 34.1437 114.409 25.3379 98.7116 22.2099C83.0146 19.0819 66.7154 21.8513 52.9325 29.9884C39.1496 38.1254 28.8507 51.0586 24.0064 66.3135C19.1621 81.5684 20.1125 98.0739 26.6757 112.672C33.239 127.27 44.9543 138.936 59.5801 145.437C74.2059 151.938 90.7152 152.818 105.949 147.909C121.184 143 134.073 132.647 142.152 118.829L160.242 129.406Z" fill="#12D8E5"/>
<path d="M160.242 129.406C149.966 146.983 133.787 160.343 114.585 167.11C95.3826 173.878 74.402 173.613 55.3766 166.363C36.3512 159.113 20.515 145.348 10.6858 127.518C0.856595 109.688 -2.32797 88.949 1.69874 68.9912C5.72546 49.0335 16.7023 31.1516 32.676 18.5274C48.6497 5.90332 68.5841 -0.644183 88.9322 0.0500026C109.28 0.744188 128.722 8.63503 143.798 22.3184C158.875 36.0018 168.607 54.5902 171.264 74.776L150.488 77.511C148.478 62.2439 141.117 48.1849 129.715 37.8358C118.312 27.4866 103.608 21.5185 88.2177 20.9935C72.8279 20.4685 57.7508 25.4205 45.6695 34.9685C33.5881 44.5165 25.286 58.0411 22.2405 73.1358C19.195 88.2304 21.6035 103.916 29.0376 117.401C36.4717 130.887 48.4492 141.298 62.8386 146.781C77.2281 152.264 93.0963 152.465 107.62 147.346C122.143 142.228 134.379 132.123 142.152 118.829L160.242 129.406Z" fill="#110DD8"/>
<path d="M160.242 129.406C150.915 145.359 136.698 157.883 119.697 165.124C102.695 172.364 83.8138 173.936 65.8492 169.606C47.8846 165.276 31.7925 155.275 19.9564 141.084C8.1204 126.893 1.17008 109.267 0.135016 90.8171C-0.900048 72.3671 4.0352 54.0744 14.2097 38.6486C24.3842 23.2229 39.2568 11.4846 56.6244 5.17258C73.9919 -1.13943 92.9307 -1.68945 110.635 3.60401C128.34 8.89746 143.869 19.7528 154.921 34.5621L138.127 47.096C129.768 35.8953 118.023 27.6851 104.632 23.6815C91.2419 19.6779 76.9179 20.0939 63.7823 24.8678C50.6467 29.6418 39.3982 38.5198 31.7029 50.1868C24.0076 61.8537 20.2749 75.689 21.0578 89.6433C21.8406 103.598 27.0974 116.929 36.0493 127.662C45.0012 138.395 57.1722 145.959 70.7594 149.234C84.3465 152.508 98.6272 151.32 111.486 145.843C124.345 140.367 135.097 130.895 142.152 118.829L160.242 129.406Z" fill="#3FB4F6"/>
<path d="M94.2513 171.603C82.6683 172.72 70.9792 171.474 59.8917 167.941C48.8042 164.408 38.549 158.662 29.747 151.051C20.9449 143.439 13.7792 134.12 8.68358 123.659C3.58798 113.197 0.668525 101.81 0.101984 90.187C-0.464558 78.5641 1.3336 66.9471 5.38758 56.0394C9.44156 45.1317 15.667 35.1602 23.6871 26.7286C31.7071 18.297 41.3549 11.5808 52.0462 6.98646C62.7376 2.39216 74.2501 0.0153946 85.8868 7.45304e-05L85.9144 20.9557C77.1132 20.9673 68.4059 22.7649 60.3197 26.2397C52.2336 29.7145 44.9367 34.7943 38.8709 41.1713C32.8051 47.5484 28.0966 55.0901 25.0305 63.3399C21.9643 71.5897 20.6043 80.376 21.0328 89.1667C21.4613 97.9575 23.6694 106.57 27.5233 114.482C31.3773 122.395 36.7969 129.443 43.4542 135.2C50.1114 140.957 57.8677 145.303 66.2535 147.975C74.6393 150.646 83.4801 151.589 92.2407 150.744L94.2513 171.603Z" fill="#C61AF1"/>
<path d="M171.625 94.0188C170.485 106.194 166.761 117.987 160.703 128.609C154.644 139.231 146.389 148.439 136.49 155.619C126.59 162.798 115.273 167.784 103.294 170.243C91.3155 172.702 78.9498 172.579 67.0224 169.88C55.0951 167.181 43.8804 161.97 34.1266 154.594C24.3729 147.218 16.3043 137.846 10.4594 127.105C4.61446 116.363 1.12754 104.499 0.231284 92.303C-0.664968 80.107 1.05006 67.8602 5.26194 56.3796L24.9354 63.5973C21.7499 72.2803 20.4527 81.543 21.1306 90.7671C21.8085 99.9912 24.4457 108.965 28.8664 117.089C33.2871 125.213 39.3896 132.301 46.7666 137.88C54.1437 143.459 62.6257 147.4 71.6467 149.441C80.6677 151.482 90.0203 151.576 99.0803 149.716C108.14 147.856 116.7 144.085 124.187 138.655C131.674 133.225 137.917 126.26 142.5 118.226C147.082 110.192 149.899 101.274 150.761 92.0649L171.625 94.0188Z" fill="#753FF6"/>
</svg>
