<svg width="68" height="68" viewBox="0 0 68 68" fill="none" xmlns="http://www.w3.org/2000/svg">
<path d="M33.5571 67.6279C52.0587 67.6279 67.0571 52.6295 67.0571 34.1279C67.0571 15.6264 52.0587 0.62793 33.5571 0.62793C15.0556 0.62793 0.0571289 15.6264 0.0571289 34.1279C0.0571289 52.6295 15.0556 67.6279 33.5571 67.6279Z" fill="#20187B" fill-opacity="0.1"/>
<path d="M48.824 24.1727C48.824 24.8928 48.4269 25.6058 47.6554 26.271C46.8838 26.9362 45.753 27.5407 44.3273 28.0498C42.9017 28.559 41.2093 28.9629 39.3466 29.2384C37.484 29.514 35.4876 29.6558 33.4715 29.6558C29.3997 29.6558 25.4948 29.0781 22.6156 28.0498C19.7365 27.0216 18.119 25.6269 18.119 24.1727M48.824 24.1727C48.824 23.4527 48.4269 22.7397 47.6554 22.0745C46.8838 21.4092 45.753 20.8048 44.3273 20.2956C42.9017 19.7865 41.2093 19.3826 39.3466 19.1071C37.484 18.8315 35.4876 18.6897 33.4715 18.6897C31.4554 18.6897 29.459 18.8315 27.5963 19.1071C25.7337 19.3826 24.0412 19.7865 22.6156 20.2956C21.19 20.8048 20.0591 21.4092 19.2876 22.0745C18.5161 22.7397 18.119 23.4527 18.119 24.1727M48.824 24.1727L48.8239 43.9117C48.8239 44.8742 48.1146 45.8197 46.7671 46.6532C45.4196 47.4868 43.4816 48.1789 41.1477 48.6602C38.8138 49.1414 36.1663 49.3948 33.4714 49.3948C30.7765 49.3948 28.129 49.1414 25.7952 48.6602C23.4613 48.1789 21.5232 47.4868 20.1757 46.6532C18.8283 45.8197 18.1189 44.8742 18.1189 43.9117L18.119 24.1727M48.8239 37.3321C48.8239 38.2946 48.1146 39.2401 46.7671 40.0737C45.4196 40.9072 43.4816 41.5994 41.1477 42.0806C38.8138 42.5618 36.1663 42.8152 33.4714 42.8152C30.7765 42.8152 28.129 42.5618 25.7952 42.0806C23.4613 41.5994 21.5232 40.9072 20.1757 40.0737C18.8283 39.2401 18.1189 38.2946 18.1189 37.3321M48.8239 30.7523C48.8239 31.7148 48.1146 32.6603 46.7671 33.4939C45.4196 34.3274 43.4816 35.0195 41.1477 35.5008C38.8138 35.982 36.1663 36.2354 33.4714 36.2354C30.7765 36.2354 28.129 35.982 25.7952 35.5008C23.4613 35.0195 21.5232 34.3274 20.1757 33.4939C18.8283 32.6603 18.1189 31.7148 18.1189 30.7523" stroke="url(#paint0_linear_28_61)" stroke-width="2.19351" stroke-linecap="round" stroke-linejoin="round"/>
<defs>
<linearGradient id="paint0_linear_28_61" x1="9.55713" y1="20.6279" x2="45.0571" y2="52.1279" gradientUnits="userSpaceOnUse">
<stop stop-color="#433CE3"/>
<stop offset="1" stop-color="#8136ED"/>
</linearGradient>
</defs>
</svg>
