<svg width="67" height="67" viewBox="0 0 67 67" fill="none" xmlns="http://www.w3.org/2000/svg">
<rect x="0.844224" y="0.844224" width="65.3116" height="65.3116" rx="32.6558" fill="white"/>
<rect x="0.844224" y="0.844224" width="65.3116" height="65.3116" rx="32.6558" stroke="#463CE4" stroke-width="1.68845"/>
<path d="M46.0564 11C44.7598 11.2158 43.5115 11.2903 42.4858 11.5138C41.0536 11.8215 40.1441 12.2483 39.6022 13.6823C39.4667 14.0578 39.5054 14.2629 39.6409 14.5155C39.7763 14.769 40.0763 15.0497 40.4634 15.2703C40.8504 15.4919 41.3149 15.6506 41.7117 15.7173C42.0987 15.7841 42.4374 15.7173 42.4374 15.7173H42.4471C44.1792 14.9277 45.3694 13.0243 46.0564 11ZM39.0216 16.3976C38.6926 18.3426 37.7152 20.1289 36.5831 21.8416C36.5444 22.0545 36.496 22.2577 36.4379 22.4609C36.1766 23.3609 35.7122 24.2221 35.0542 24.9575L35.0638 24.9672C35.8089 24.3963 36.5637 24.0479 37.3088 23.8737C38.6926 21.9191 40.0957 19.7418 40.6376 17.2433C40.2795 17.1282 39.9312 16.9763 39.5925 16.7837C39.399 16.6705 39.2054 16.5418 39.0216 16.3976ZM30.7287 17.2308C29.5772 17.2211 28.2612 17.4494 26.8194 17.8113C24.5454 18.3813 22.0779 19.2386 19.7071 19.7418C21.4682 21.3675 22.8326 23.0802 24.2744 24.2318C26.1033 25.6833 27.9322 26.3993 31.3964 25.3155C33.1672 24.764 34.3575 23.4093 34.7639 21.9771C35.18 20.545 34.8703 19.0935 33.5736 18.0658C32.8382 17.4843 31.8706 17.2404 30.7287 17.2308ZM38.5861 25.393C37.7443 25.3833 36.9024 25.6833 35.896 26.5348C33.6124 28.4604 34.6671 30.4732 35.6831 30.928H35.6928C35.9251 31.0344 36.525 31.0731 37.2895 30.9086C38.0636 30.7441 38.9925 30.3958 39.9505 29.9313C41.3536 29.2539 42.7954 28.3153 43.9082 27.3767C42.6309 26.8928 41.4794 26.1961 40.386 25.7994C39.815 25.5865 39.2828 25.4317 38.7506 25.4026C38.6926 25.4026 38.6345 25.393 38.5861 25.393ZM32.577 31.6634C27.9322 31.7118 23.7422 32.1085 20.7038 32.6891C19.0684 32.9988 17.7515 33.3761 16.9202 33.7535C16.5042 33.9374 16.2129 34.1309 16.0735 34.2664C16.0232 34.3148 16.0135 34.3244 16 34.3438C16.0135 34.3632 16.0232 34.3728 16.0735 34.4212C16.2129 34.5567 16.5042 34.7502 16.9202 34.9341C17.7515 35.3115 19.0684 35.6888 20.7038 35.9985C23.9842 36.6275 28.5902 37.0242 33.6801 37.0242C38.77 37.0242 43.376 36.6275 46.6564 35.9985C48.2917 35.6888 49.6077 35.3115 50.4399 34.9341C50.856 34.7502 51.1463 34.5567 51.2915 34.4212C51.3399 34.3728 51.3495 34.3632 51.3592 34.3438C51.3495 34.3244 51.3399 34.3148 51.2915 34.2664C51.1463 34.1309 50.856 33.9374 50.4399 33.7535C49.6077 33.3761 48.2917 32.9988 46.6564 32.6891C44.7888 32.3311 42.4858 32.0504 39.9118 31.8666C39.1377 32.1956 38.3829 32.4569 37.6572 32.6117C36.6992 32.8149 35.7993 32.8826 34.9768 32.5149C34.7639 32.4182 34.5607 32.302 34.3768 32.1666C34.4639 33.0181 34.5703 33.8696 34.6865 34.7309L32.964 34.9825C32.7995 33.8793 32.664 32.7859 32.577 31.6634ZM16.6812 36.7242L17.4447 40.5368C18.4317 41.3787 20.6361 42.2205 23.4423 42.7624C26.413 43.3237 30.0514 43.614 33.6801 43.614C37.3088 43.614 40.9472 43.3237 43.9179 42.7624C46.7241 42.2205 48.9304 41.3787 49.9174 40.5368L50.6819 36.7242C49.6948 37.1016 48.4466 37.4306 46.9854 37.7113C43.5405 38.3693 38.8571 38.766 33.6801 38.766C28.5031 38.766 23.8196 38.3693 20.3748 37.7113C18.9136 37.4306 17.6673 37.1016 16.6812 36.7242ZM20.9941 44.001L22.1262 53.039C22.7552 53.8228 24.2454 54.6356 26.2581 55.1581C28.387 55.7097 31.0287 56 33.6801 56C36.3315 56 38.9732 55.7097 41.102 55.1581C43.1148 54.6356 44.605 53.8228 45.2339 53.039L46.3661 44.001C45.6984 44.1752 44.992 44.3204 44.2469 44.4655C41.1214 45.0655 37.4056 45.3558 33.6801 45.3558C29.9546 45.3558 26.2388 45.0655 23.1133 44.4655C22.3682 44.33 21.6618 44.1752 20.9941 44.001Z" fill="url(#paint0_linear_43_769)"/>
<defs>
<linearGradient id="paint0_linear_43_769" x1="16" y1="16" x2="40" y2="53" gradientUnits="userSpaceOnUse">
<stop stop-color="#433CE3"/>
<stop offset="1" stop-color="#8835EE"/>
</linearGradient>
</defs>
</svg>
