<svg width="68" height="68" viewBox="0 0 68 68" fill="none" xmlns="http://www.w3.org/2000/svg">
<path d="M33.5571 67.6279C52.0587 67.6279 67.0571 52.6295 67.0571 34.1279C67.0571 15.6264 52.0587 0.62793 33.5571 0.62793C15.0556 0.62793 0.0571289 15.6264 0.0571289 34.1279C0.0571289 52.6295 15.0556 67.6279 33.5571 67.6279Z" fill="#20187B" fill-opacity="0.1"/>
<path d="M35.3071 28.3779V27.1279H32.8071V28.3779H32.2896L30.3071 30.3604V33.8954L32.2896 35.8779H34.7896L35.3071 36.3954V37.8604L34.7896 38.3779H33.3246L32.8071 37.8604V37.1279H30.3071V38.8954L32.2896 40.8779H32.8071V42.1279H35.3071V40.8779H35.8246L37.8071 38.8954V35.3604L35.8246 33.3779H33.3246L32.8071 32.8604V31.3954L33.3246 30.8779H34.7896L35.3071 31.3954V32.1279H37.8071V30.3604L35.8246 28.3779H35.3071Z" fill="url(#paint0_linear_28_116)"/>
<path d="M46.0396 24.6279H49.5746L51.5571 22.6454V19.1104L49.5746 17.1279H46.0396L44.0571 19.1104V22.6454L44.1646 22.7529L42.8071 24.1104L40.8246 22.1279H37.8071V19.1104L35.8246 17.1279H32.2896L30.3071 19.1104V22.1279H27.2896L25.3071 24.1104L23.9496 22.7529L24.0571 22.6454V19.1104L22.0746 17.1279H18.5396L16.5571 19.1104V22.6454L18.5396 24.6279H22.0746L22.1821 24.5204L23.5396 25.8779L21.5571 27.8604V30.8779H18.5396L16.5571 32.8604V36.3954L18.5396 38.3779H21.5571V41.3954L23.5396 43.3779L22.1821 44.7354L22.0746 44.6279H18.5396L16.5571 46.6104V50.1454L18.5396 52.1279H22.0746L24.0571 50.1454V46.6104L23.9496 46.5029L25.3071 45.1454L27.2896 47.1279H30.3071V50.1454L32.2896 52.1279H35.8246L37.8071 50.1454V47.1279H40.8246L42.8071 45.1454L44.1646 46.5029L44.0571 46.6104V50.1454L46.0396 52.1279H49.5746L51.5571 50.1454V46.6104L49.5746 44.6279H46.0396L45.9321 44.7354L44.5746 43.3779L46.5571 41.3954V38.3779H49.5746L51.5571 36.3954V32.8604L49.5746 30.8779H46.5571V27.8604L44.5746 25.8779L45.9321 24.5204L46.0396 24.6279ZM21.5571 21.6104L21.0396 22.1279H19.5746L19.0571 21.6104V20.1454L19.5746 19.6279H21.0396L21.5571 20.1454V21.6104ZM21.5571 49.1104L21.0396 49.6279H19.5746L19.0571 49.1104V47.6454L19.5746 47.1279H21.0396L21.5571 47.6454V49.1104ZM46.5571 47.6454L47.0746 47.1279H48.5396L49.0571 47.6454V49.1104L48.5396 49.6279H47.0746L46.5571 49.1104V47.6454ZM32.8071 21.6104V20.1454L33.3246 19.6279H34.7896L35.3071 20.1454V21.6104L34.7896 22.1279H33.3246L32.8071 21.6104ZM21.0396 35.8779H19.5746L19.0571 35.3604V33.8954L19.5746 33.3779H21.0396L21.5571 33.8954V35.3604L21.0396 35.8779ZM35.3071 47.6454V49.1104L34.7896 49.6279H33.3246L32.8071 49.1104V47.6454L33.3246 47.1279H34.7896L35.3071 47.6454ZM39.7896 44.6279H28.3246L24.0571 40.3604V28.8954L28.3246 24.6279H39.7896L44.0571 28.8954V40.3604L39.7896 44.6279ZM47.0746 33.3779H48.5396L49.0571 33.8954V35.3604L48.5396 35.8779H47.0746L46.5571 35.3604V33.8954L47.0746 33.3779ZM46.5571 20.1454L47.0746 19.6279H48.5396L49.0571 20.1454V21.6104L48.5396 22.1279H47.0746L46.5571 21.6104V20.1454Z" fill="url(#paint1_linear_28_116)"/>
<defs>
<linearGradient id="paint0_linear_28_116" x1="16.5571" y1="20.1279" x2="45.0571" y2="51.1279" gradientUnits="userSpaceOnUse">
<stop stop-color="#413CE3"/>
<stop offset="1" stop-color="#8336ED"/>
</linearGradient>
<linearGradient id="paint1_linear_28_116" x1="16.5571" y1="20.1279" x2="45.0571" y2="51.1279" gradientUnits="userSpaceOnUse">
<stop stop-color="#413CE3"/>
<stop offset="1" stop-color="#8336ED"/>
</linearGradient>
</defs>
</svg>
