<svg width="58" height="58" viewBox="0 0 58 58" fill="none" xmlns="http://www.w3.org/2000/svg">
<rect x="1.80727" y="1.87344" width="54.5783" height="54.5783" rx="27.2892" stroke="#463CE4" stroke-width="1.98467"/>
<path d="M40.973 14.6899L31.3359 11.0804C30.3372 10.7125 28.7077 10.7125 27.7089 11.0804L18.0719 14.6899C16.2145 15.3908 14.7076 17.5635 14.7076 19.5435V33.7363C14.7076 35.1555 15.6363 37.0304 16.7752 37.8714L26.4123 45.0729C28.1119 46.352 30.8979 46.352 32.5975 45.0729L42.2346 37.8714C43.3735 37.0129 44.3022 35.1555 44.3022 33.7363V19.5435C44.3197 17.5635 42.8128 15.3908 40.973 14.6899ZM35.6113 24.5022L28.0769 32.0366C27.814 32.2995 27.4811 32.4221 27.1482 32.4221C26.8153 32.4221 26.4824 32.2995 26.2195 32.0366L23.416 29.1981C22.9079 28.6899 22.9079 27.8489 23.416 27.3408C23.9242 26.8326 24.7652 26.8326 25.2734 27.3408L27.1657 29.2331L33.7715 22.6274C34.2796 22.1192 35.1207 22.1192 35.6288 22.6274C36.137 23.1355 36.137 23.9941 35.6113 24.5022Z" fill="url(#paint0_linear_31_362)"/>
<defs>
<linearGradient id="paint0_linear_31_362" x1="14.7076" y1="18.7147" x2="44.0223" y2="50.8213" gradientUnits="userSpaceOnUse">
<stop stop-color="#423CE3"/>
<stop offset="1" stop-color="#8635ED"/>
</linearGradient>
</defs>
</svg>
