<svg width="33" height="33" viewBox="0 0 33 33" fill="none" xmlns="http://www.w3.org/2000/svg">
<g clip-path="url(#clip0_64_1219)">
<path d="M25.2656 0H7.73438C3.4628 0 0 3.4628 0 7.73438V25.2656C0 29.5372 3.4628 33 7.73438 33H25.2656C29.5372 33 33 29.5372 33 25.2656V7.73438C33 3.4628 29.5372 0 25.2656 0Z" fill="white"/>
<path d="M25.2656 0H7.73438C3.4628 0 0 3.4628 0 7.73438V25.2656C0 29.5372 3.4628 33 7.73438 33H25.2656C29.5372 33 33 29.5372 33 25.2656V7.73438C33 3.4628 29.5372 0 25.2656 0Z" fill="#0A66C2"/>
<path d="M23.8109 28.061H27.584C27.7207 28.061 27.8519 28.0066 27.9486 27.91C28.0453 27.8133 28.0996 27.6822 28.0996 27.5455L28.1016 19.5736C28.1016 15.407 27.2037 12.2043 22.3346 12.2043C20.4836 12.1355 18.7381 13.0897 17.7962 14.6829C17.7915 14.6907 17.7845 14.6967 17.7762 14.7001C17.7678 14.7035 17.7586 14.704 17.7499 14.7017C17.7412 14.6993 17.7336 14.6942 17.728 14.687C17.7225 14.6799 17.7195 14.6712 17.7195 14.6622V13.1046C17.7195 12.9679 17.6651 12.8367 17.5684 12.74C17.4717 12.6433 17.3406 12.589 17.2038 12.589H13.6232C13.4864 12.589 13.3553 12.6433 13.2586 12.74C13.1619 12.8367 13.1076 12.9679 13.1076 13.1046V27.5447C13.1076 27.6814 13.1619 27.8126 13.2586 27.9093C13.3553 28.006 13.4864 28.0603 13.6232 28.0603H17.396C17.5328 28.0603 17.6639 28.006 17.7606 27.9093C17.8573 27.8126 17.9117 27.6814 17.9117 27.5447V20.4068C17.9117 18.3885 18.2945 16.4339 20.7967 16.4339C23.2633 16.4339 23.2953 18.7434 23.2953 20.5375V27.5453C23.2953 27.6821 23.3496 27.8132 23.4463 27.9099C23.543 28.0066 23.6742 28.061 23.8109 28.061ZM4.89844 7.68642C4.89844 9.21576 6.15746 10.4741 7.68694 10.4741C9.21602 10.474 10.4743 9.21486 10.4743 7.68578C10.474 6.15669 9.21564 4.89844 7.68642 4.89844C6.15682 4.89844 4.89844 6.15708 4.89844 7.68642ZM5.7955 28.061H9.57335C9.7101 28.061 9.84126 28.0066 9.93795 27.9099C10.0347 27.8132 10.089 27.6821 10.089 27.5453V13.1046C10.089 12.9679 10.0347 12.8367 9.93795 12.74C9.84126 12.6433 9.7101 12.589 9.57335 12.589H5.7955C5.65874 12.589 5.52759 12.6433 5.43089 12.74C5.3342 12.8367 5.27987 12.9679 5.27987 13.1046V27.5453C5.27987 27.6821 5.3342 27.8132 5.43089 27.9099C5.52759 28.0066 5.65874 28.061 5.7955 28.061Z" fill="white"/>
</g>
<defs>
<clipPath id="clip0_64_1219">
<rect width="33" height="33" fill="white"/>
</clipPath>
</defs>
</svg>
