<svg xmlns="http://www.w3.org/2000/svg"  viewBox="0 0 64 64" width="64px" height="64px"><path d="M 9 13 A 1.0001 1.0001 0 0 0 8 14 L 8 22 A 1.0001 1.0001 0 0 0 9 23 L 54.021484 23 C 54.036854 23.560327 54.054462 24.053119 54.070312 25.085938 C 54.081203 25.795586 54.084435 26.476089 54.078125 27 L 9 27 A 1.0001 1.0001 0 0 0 8 28 L 8 36 A 1.0001 1.0001 0 0 0 9 37 L 54.015625 37 C 54.025975 37.550983 54.036415 38.005614 54.046875 39.009766 C 54.054475 39.737024 54.057784 40.455723 54.052734 41 L 9 41 A 1.0001 1.0001 0 0 0 8 42 L 8 50 A 1.0001 1.0001 0 0 0 9 51 L 55 51 A 1.0001 1.0001 0 1 0 55 49 L 10 49 L 10 43 L 55 43 C 55.000488 43 55.354988 42.935727 55.355469 42.935547 C 55.355949 42.935364 55.610855 42.793332 55.611328 42.792969 C 55.611801 42.792605 55.726159 42.692176 55.763672 42.648438 C 55.801182 42.604698 55.827919 42.565378 55.849609 42.53125 C 55.936339 42.394752 55.952313 42.325895 55.96875 42.271484 C 56.00162 42.162662 56.005079 42.11541 56.011719 42.066406 C 56.024989 41.968396 56.030156 41.890786 56.035156 41.794922 C 56.045156 41.603194 56.049734 41.360459 56.052734 41.072266 C 56.058734 40.495879 56.054775 39.743706 56.046875 38.990234 C 56.03121 37.483288 56 35.978516 56 35.978516 A 1.0001 1.0001 0 0 0 55 35 L 10 35 L 10 29 L 55 29 L 54.996094 28.998047 C 55.016014 28.999747 55.054537 29.003906 55.054688 29.003906 C 55.055372 29.003874 55.319639 28.955298 55.320312 28.955078 C 55.320988 28.954858 55.474538 28.892589 55.535156 28.855469 C 55.656393 28.781219 55.733024 28.702024 55.787109 28.636719 C 56.003451 28.375497 55.980375 28.288082 56 28.210938 C 56.03925 28.056649 56.042341 27.980665 56.050781 27.880859 C 56.067651 27.681249 56.073575 27.445765 56.078125 27.158203 C 56.087225 26.583079 56.082113 25.82147 56.070312 25.054688 C 56.046773 23.521128 56 21.970703 56 21.970703 A 1.0001 1.0001 0 0 0 55 21 L 10 21 L 10 15 L 55 15 A 1.0001 1.0001 0 1 0 55 13 L 9 13 z"/></svg>