<svg width="68" height="68" viewBox="0 0 68 68" fill="none" xmlns="http://www.w3.org/2000/svg">
<path d="M33.5571 67.6279C52.0587 67.6279 67.0571 52.6295 67.0571 34.1279C67.0571 15.6264 52.0587 0.62793 33.5571 0.62793C15.0556 0.62793 0.0571289 15.6264 0.0571289 34.1279C0.0571289 52.6295 15.0556 67.6279 33.5571 67.6279Z" fill="#20187B" fill-opacity="0.1"/>
<path d="M20.5751 50.1528C20.1575 50.1522 19.7571 49.9861 19.4618 49.6909C19.1666 49.3955 19.0004 48.9952 18.9999 48.5776C18.9953 48.344 18.8993 48.1214 18.7325 47.9578C18.5656 47.7941 18.3412 47.7024 18.1075 47.7024C17.8738 47.7024 17.6494 47.7942 17.4826 47.9578C17.3157 48.1214 17.2197 48.344 17.2152 48.5776C17.2176 49.3109 17.4602 50.0232 17.9058 50.6055C18.3514 51.1877 18.9756 51.608 19.6826 51.8019C19.6209 52.4616 19.7861 53.1435 20.5751 53.1714C21.3601 53.1431 21.5306 52.4647 21.4674 51.8019C22.251 51.5878 22.9302 51.0962 23.3787 50.4188C23.827 49.7413 24.0141 48.9241 23.9049 48.119C23.7958 47.314 23.398 46.576 22.7855 46.0423C22.1729 45.5086 21.3874 45.2155 20.5751 45.2177C20.2634 45.2177 19.9589 45.1252 19.6999 44.9521C19.4409 44.779 19.2389 44.5331 19.1197 44.2452C19.0005 43.9573 18.9694 43.6406 19.0302 43.335C19.091 43.0294 19.241 42.7487 19.4613 42.5285C19.6815 42.3082 19.9623 42.1581 20.2679 42.0973C20.5734 42.0365 20.8901 42.0678 21.178 42.1869C21.4659 42.3061 21.7118 42.5081 21.8851 42.7671C22.0582 43.0261 22.1505 43.3307 22.1505 43.6423C22.1506 43.8789 22.2446 44.1059 22.412 44.2732C22.5794 44.4406 22.8063 44.5346 23.0429 44.5346C23.2797 44.5346 23.5066 44.4406 23.674 44.2732C23.8413 44.1058 23.9354 43.8789 23.9352 43.6421C23.9328 42.9089 23.6902 42.1965 23.2445 41.6143C22.7987 41.032 22.1746 40.6117 21.4674 40.4179C21.5291 39.7583 21.3637 39.0766 20.5751 39.0488C19.7903 39.0771 19.6194 39.7552 19.6828 40.4179C18.906 40.639 18.2351 41.1326 17.793 41.8085C17.3508 42.4841 17.1672 43.2967 17.2756 44.0968C17.3841 44.8971 17.7774 45.6314 18.3834 46.1651C18.9895 46.6988 19.7676 46.996 20.5752 47.0024C20.989 47.0084 21.3839 47.177 21.6744 47.4717C21.965 47.7665 22.1279 48.1638 22.1279 48.5776C22.1279 48.9915 21.965 49.3889 21.6744 49.6835C21.3839 49.9783 20.9888 50.1468 20.5751 50.1528Z" fill="url(#paint0_linear_28_92)"/>
<path d="M20.5751 57.6279C23.6287 57.6245 26.5565 56.41 28.7158 54.2508C30.8752 52.0914 32.0899 49.1638 32.0934 46.1101C31.4604 30.8297 9.68753 30.8338 9.05713 46.1101C9.06057 49.1638 10.2752 52.0914 12.4344 54.2508C14.5937 56.41 17.5213 57.6245 20.5751 57.6279ZM20.5751 36.3765C23.1557 36.3794 25.6298 37.4059 27.4545 39.2306C29.2793 41.0554 30.3057 43.5295 30.3087 46.1101C29.774 59.0223 11.3747 59.019 10.8418 46.11C10.8447 43.5295 11.8711 41.0554 13.6958 39.2307C15.5205 37.406 17.9945 36.3795 20.5751 36.3765Z" fill="url(#paint1_linear_28_92)"/>
<path d="M47.5113 11.6279C44.4577 11.6313 41.53 12.8459 39.3706 15.0052C37.2112 17.1644 35.9965 20.0921 35.9931 23.1458C36.626 38.4263 58.3989 38.4222 59.0293 23.1457C59.0259 20.092 57.8113 17.1644 55.652 15.0052C53.4926 12.8459 50.565 11.6313 47.5113 11.6279ZM57.1994 22.2535H52.846C52.8586 19.3847 52.1713 16.5562 50.844 14.0129C52.5738 14.6455 54.0889 15.7554 55.2137 17.2138C56.3385 18.6723 57.027 20.4197 57.1994 22.2535ZM47.5113 32.8794C45.9179 32.8794 44.1483 29.1546 43.9607 24.0382H51.0621C50.8745 29.1546 49.1049 32.8794 47.5113 32.8794ZM43.9607 22.2535C44.1484 17.1374 45.9179 13.4126 47.5113 13.4126C49.1049 13.4126 50.8743 17.1374 51.0621 22.2535H43.9607ZM44.1789 14.0127C42.8515 16.556 42.1642 19.3846 42.1768 22.2535H37.823C37.9953 20.4196 38.6839 18.6721 39.8088 17.2136C40.9338 15.7551 42.449 14.6453 44.1789 14.0127ZM37.823 24.0382H42.1768C42.1642 26.9071 42.8515 29.7359 44.179 32.2792C42.449 31.6466 40.9338 30.5368 39.8088 29.0783C38.6839 27.6196 37.9953 25.872 37.823 24.0382ZM50.8439 32.2792C52.1713 29.7357 52.8586 26.9071 52.846 24.0382H57.1994C57.0271 25.872 56.3386 27.6195 55.2138 29.078C54.0889 30.5366 52.5738 31.6465 50.8439 32.2792Z" fill="url(#paint2_linear_28_92)"/>
<path d="M45.6578 46.074H36.6536C36.4193 46.0776 36.1959 46.1732 36.0315 46.3402C35.8671 46.5072 35.775 46.7321 35.775 46.9664C35.775 47.2007 35.8672 47.4256 36.0316 47.5926C36.1959 47.7594 36.4194 47.855 36.6537 47.8587H45.6578C46.3858 47.8579 47.0838 47.5684 47.5986 47.0536C48.1133 46.5387 48.4029 45.8408 48.4038 45.1127V40.8951L48.9367 41.428C49.1039 41.5952 49.331 41.6892 49.5676 41.6892C49.8042 41.6892 50.0311 41.5952 50.1985 41.4279C50.3658 41.2606 50.4599 41.0337 50.4599 40.7969C50.4599 40.5603 50.3658 40.3334 50.1985 40.166L48.1425 38.1101C47.9728 37.9456 47.7453 37.8541 47.509 37.8549C47.2725 37.8557 47.0459 37.9488 46.8773 38.1146C46.0611 38.9467 45.1306 39.8922 44.9258 40.078C44.7745 40.1895 44.6622 40.3459 44.6048 40.525C44.5475 40.7039 44.5484 40.8966 44.607 41.0751C44.6656 41.2538 44.7791 41.4094 44.9314 41.5196C45.0837 41.6299 45.2669 41.6892 45.4548 41.6893C45.7495 41.6893 45.848 41.6815 46.619 40.9202V45.1127C46.6188 45.3676 46.5173 45.6119 46.3372 45.7921C46.157 45.9723 45.9126 46.0737 45.6578 46.074Z" fill="url(#paint3_linear_28_92)"/>
<path d="M22.4081 23.1057H31.4123C31.6467 23.1023 31.8703 23.0067 32.0348 22.8397C32.1993 22.6727 32.2915 22.4477 32.2915 22.2134C32.2915 21.979 32.1993 21.7539 32.0348 21.5869C31.8703 21.42 31.6466 21.3245 31.4123 21.321H22.4081C21.6802 21.3218 20.9822 21.6113 20.4675 22.126C19.9527 22.6406 19.6631 23.3385 19.6622 24.0665V28.2844L19.1293 27.7514C19.0465 27.6683 18.9481 27.6022 18.8398 27.5572C18.7315 27.5122 18.6153 27.4888 18.498 27.4888C18.3806 27.4887 18.2645 27.5117 18.156 27.5565C18.0476 27.6014 17.9491 27.6671 17.8661 27.75C17.7832 27.8331 17.7174 27.9316 17.6725 28.0399C17.6277 28.1485 17.6047 28.2646 17.6048 28.3819C17.6049 28.4993 17.6282 28.6154 17.6732 28.7238C17.7183 28.832 17.7843 28.9305 17.8674 29.0133L19.9233 31.0695C20.0932 31.2339 20.3205 31.3256 20.557 31.3248C20.7933 31.3238 21.02 31.2307 21.1887 31.0651C22.0047 30.2326 22.9352 29.287 23.14 29.1009C23.2915 28.9893 23.4038 28.833 23.4609 28.654C23.5182 28.4749 23.5175 28.2824 23.4589 28.1039C23.4003 27.9253 23.2867 27.7699 23.1344 27.6596C22.9823 27.5493 22.7991 27.49 22.6112 27.49C22.3165 27.49 22.2178 27.4978 21.447 28.2593V24.0665C21.4472 23.8117 21.5487 23.5675 21.7288 23.3874C21.909 23.2073 22.1534 23.106 22.4081 23.1057Z" fill="url(#paint4_linear_28_92)"/>
<defs>
<linearGradient id="paint0_linear_28_92" x1="19.7654" y1="29.8687" x2="51.7204" y2="57.7443" gradientUnits="userSpaceOnUse">
<stop stop-color="#423CE3"/>
<stop offset="1" stop-color="#8136ED"/>
</linearGradient>
<linearGradient id="paint1_linear_28_92" x1="19.7654" y1="29.8687" x2="51.7204" y2="57.7443" gradientUnits="userSpaceOnUse">
<stop stop-color="#423CE3"/>
<stop offset="1" stop-color="#8136ED"/>
</linearGradient>
<linearGradient id="paint2_linear_28_92" x1="19.7654" y1="29.8687" x2="51.7204" y2="57.7443" gradientUnits="userSpaceOnUse">
<stop stop-color="#423CE3"/>
<stop offset="1" stop-color="#8136ED"/>
</linearGradient>
<linearGradient id="paint3_linear_28_92" x1="19.7654" y1="29.8687" x2="51.7204" y2="57.7443" gradientUnits="userSpaceOnUse">
<stop stop-color="#423CE3"/>
<stop offset="1" stop-color="#8136ED"/>
</linearGradient>
<linearGradient id="paint4_linear_28_92" x1="19.7654" y1="29.8687" x2="51.7204" y2="57.7443" gradientUnits="userSpaceOnUse">
<stop stop-color="#423CE3"/>
<stop offset="1" stop-color="#8136ED"/>
</linearGradient>
</defs>
</svg>
