<svg width="57" height="58" viewBox="0 0 57 58" fill="none" xmlns="http://www.w3.org/2000/svg">
<rect x="1.03347" y="1.4064" width="54.8005" height="54.8005" rx="27.4002" stroke="#463CE4" stroke-width="1.7625"/>
<path fill-rule="evenodd" clip-rule="evenodd" d="M24.6371 14.2595C21.5707 15.1514 18.8446 16.9475 16.8149 19.4129C14.7852 21.8784 13.5462 24.8987 13.2599 28.0793H20.5108C20.9312 23.2395 22.3345 18.5362 24.6348 14.2572L24.6371 14.2595ZM20.5108 30.9117H13.2599C13.5456 34.0925 14.784 37.1131 16.8134 39.579C18.8427 42.0449 21.5685 43.8414 24.6348 44.7339C22.3345 40.4549 20.9312 35.7516 20.5108 30.9117ZM28.2693 45.3389C25.5203 40.9826 23.8358 36.0401 23.3523 30.9117H34.7612C34.2777 36.0401 32.5932 40.9826 29.8442 45.3389C29.3195 45.3643 28.794 45.3643 28.2693 45.3389ZM33.481 44.7316C36.5469 43.8393 39.2725 42.0431 41.3018 39.5776C43.3311 37.1122 44.5697 34.0921 44.8559 30.9117H37.6049C37.1846 35.7516 35.7813 40.4549 33.481 44.7339V44.7316ZM37.6049 28.0793H44.8559C44.5701 24.8986 43.3317 21.878 41.3024 19.4121C39.2731 16.9462 36.5473 15.1497 33.481 14.2572C35.7814 18.5362 37.1846 23.2394 37.6049 28.0793ZM28.2693 13.6522C28.7947 13.6265 29.321 13.6265 29.8464 13.6522C32.5946 18.0087 34.2784 22.9511 34.7612 28.0793H23.3546C23.8463 22.9198 25.5344 17.9733 28.2693 13.6522Z" fill="url(#paint0_linear_31_375)"/>
<defs>
<linearGradient id="paint0_linear_31_375" x1="17.6661" y1="16.7173" x2="36.1724" y2="45.358" gradientUnits="userSpaceOnUse">
<stop stop-color="#3E3CE2"/>
<stop offset="1" stop-color="#8336ED"/>
</linearGradient>
</defs>
</svg>
