<svg width="67" height="67" viewBox="0 0 67 67" fill="none" xmlns="http://www.w3.org/2000/svg">
<rect x="0.844224" y="0.844224" width="65.3116" height="65.3116" rx="32.6558" fill="white"/>
<rect x="0.844224" y="0.844224" width="65.3116" height="65.3116" rx="32.6558" stroke="#463CE4" stroke-width="1.68845"/>
<path d="M27.4068 28.1864C28.1525 27.4068 29.0258 26.7878 30.0264 26.3295C31.0271 25.8712 32.12 25.6427 33.3051 25.6441C34.4915 25.6441 35.5851 25.8732 36.5858 26.3315C37.5864 26.7898 38.459 27.4081 39.2034 28.1864L49.4746 22.4407L35.2881 14.5593C34.678 14.1864 34.0169 14 33.3051 14C32.5932 14 31.9322 14.1864 31.322 14.5593L17.1356 22.4407L27.4068 28.1864ZM31.2712 53V41.661C29.5085 41.1864 28.0508 40.2291 26.8983 38.7892C25.7458 37.3491 25.1695 35.6793 25.1695 33.7797C25.1695 33.4068 25.1864 33.0508 25.2203 32.7119C25.2542 32.3729 25.322 32.0508 25.4237 31.7458L15 25.8983V41.5593C15 42.3051 15.1864 42.9919 15.5593 43.6197C15.9322 44.2475 16.4407 44.7471 17.0847 45.1186L31.2712 53ZM33.3051 37.8475C34.4237 37.8475 35.3817 37.4495 36.179 36.6536C36.9763 35.8576 37.3742 34.8997 37.3729 33.7797C37.3729 32.661 36.9749 31.7037 36.179 30.9078C35.3831 30.1119 34.4251 29.7132 33.3051 29.7119C32.1864 29.7119 31.2292 30.1105 30.4332 30.9078C29.6373 31.7051 29.2386 32.6624 29.2373 33.7797C29.2373 34.8983 29.6359 35.8563 30.4332 36.6536C31.2305 37.4508 32.1878 37.8488 33.3051 37.8475ZM35.339 53L49.5254 45.1186C50.1695 44.7458 50.678 44.2461 51.0508 43.6197C51.4237 42.9932 51.6102 42.3064 51.6102 41.5593V25.8983L41.1864 31.7458C41.2881 32.0847 41.3559 32.4156 41.3898 32.7383C41.4237 33.061 41.4407 33.4081 41.4407 33.7797C41.4407 35.678 40.8644 37.3478 39.7119 38.7892C38.5593 40.2305 37.1017 41.1878 35.339 41.661V53Z" fill="url(#paint0_linear_43_799)"/>
<defs>
<linearGradient id="paint0_linear_43_799" x1="15" y1="25.5" x2="42.5" y2="58.5" gradientUnits="userSpaceOnUse">
<stop stop-color="#413CE3"/>
<stop offset="1" stop-color="#8835EE"/>
</linearGradient>
</defs>
</svg>
